# xmcd
#
# Track frame offsets: 
#        150
#        28213
#        51359
#        93471
#        120959
#        141705
#        165570
#
# Disc length: 3003 seconds
#
# Revision: 2
# Processed by: cddbd v1.5.2PL0 Copyright (c) Steve Scherf et al.
# Submitted via: ExactAudioCopy v0.99pb4
#
DISCID=600bb907
DTITLE=The Sight Below - It All Falls Apart
DYEAR=2010
DGENRE=Ambient
TTITLE0=Shimmer
TTITLE1=Fervent
TTITLE2=Through The Gaps In The Land
TTITLE3=Burn Me Out From The Inside
TTITLE4=It All Falls Apart
TTITLE5=New Dawn Fades
TTITLE6=Stagger
EXTD=
EXTT0=
EXTT1=
EXTT2=
EXTT3=
EXTT4=
EXTT5=
EXTT6=
PLAYORDER=
